<svg width="512" height="512" viewBox="0 0 512 512" fill="none" xmlns="http://www.w3.org/2000/svg">
  <defs>
    <linearGradient id="bg" x1="0" y1="0" x2="512" y2="512" gradientUnits="userSpaceOnUse">
      <stop offset="0" stop-color="#2563eb"/>
      <stop offset="1" stop-color="#0ea5e9"/>
    </linearGradient>
    <linearGradient id="mark" x1="180" y1="230" x2="340" y2="330" gradientUnits="userSpaceOnUse">
      <stop offset="0" stop-color="#1d4ed8"/>
      <stop offset="1" stop-color="#0ea5e9"/>
    </linearGradient>
  </defs>
  <!-- full-bleed square bg (no rounded corners) for maskable safe zone -->
  <rect x="0" y="0" width="512" height="512" fill="url(#bg)"/>
  <!-- content within ~80% safe zone -->
  <g transform="translate(256 256) scale(0.8) translate(-256 -256)">
    <rect x="150" y="132" width="212" height="270" rx="26" fill="#ffffff" opacity="0.38" transform="rotate(-8 256 267)"/>
    <path d="M150 150 a26 26 0 0 1 26 -26 h120 l66 66 v206 a26 26 0 0 1 -26 26 h-160 a26 26 0 0 1 -26 -26 z" fill="#ffffff"/>
    <path d="M296 124 l66 66 h-46 a20 20 0 0 1 -20 -20 z" fill="#dbeafe"/>
    <g fill="url(#mark)">
      <path d="M182 250 h26 l24 32 24 -32 h26 v96 h-26 v-56 l-24 30 -24 -30 v56 h-26 z"/>
      <path d="M320 250 h26 v46 h22 l-35 42 -35 -42 h22 z"/>
    </g>
  </g>
</svg>
